<svg width="512" height="512" viewBox="0 0 512 512" fill="none" xmlns="http://www.w3.org/2000/svg">
<rect width="512" height="512" rx="102.4" fill="#FFA600"/>
<path d="M202.619 149.841L251.528 159.933L292.206 151.015L321.833 151.015L331.238 152.423L349.344 157.82L358.984 160.637L364.628 162.983L374.033 167.912L389.317 182.696L401.309 197.011L405.776 205.225L410.479 215.785L414.947 225.172L416.593 232.447L420.59 257.792L422.471 283.372L423.647 301.676L437.755 327.49L438.225 329.837L438.46 335.704L433.993 347.672L429.995 352.601L424.352 359.171L421.53 362.457L417.141 365.742L407.266 371.375L405.541 371.375L402.484 370.905L399.428 370.201L397.312 368.793L395.901 366.681L395.43 358.467L396.371 350.254L399.428 343.214L390.257 333.357L383.203 325.613L380.382 321.623L373.798 318.103L331.238 299.799L325.595 299.564L320.892 300.503L303.963 304.727L287.503 306.135L270.103 303.554L267.987 304.492L271.044 354.947L270.103 361.284L265.871 369.262L260.698 374.895L256.465 377.476L251.998 379.119L240.006 380.057L229.19 379.823L225.192 378.415L221.665 376.068L220.49 373.252L220.019 370.436L220.96 366.916L222.136 363.865L228.249 358.702L233.657 354.478L214.376 313.41L206.852 307.308L154.182 285.718L146.422 280.086L141.719 273.046L123.144 273.28L115.854 273.28L109.506 272.342L103.392 269.291L101.041 269.056L73.295 271.168L66.4761 269.341L57.7761 262.485L55.1896 260.139L51.6625 255.68L47.4301 249.109L47.195 247.701L47.4301 245.589L48.1355 243.946L51.6626 240.895L63.8896 232.212L66.4761 212.265L70.4734 207.337L85.0518 194.43L85.7572 176.829L86.4626 173.544L87.8734 170.728L91.1653 168.146L94.2221 167.442L97.7491 168.146L103.157 173.544L104.568 173.544L106.214 172.84L108.565 164.157L109.036 162.514L110.917 161.106L114.48 160.323L118.676 161.575L133.96 171.432L141.014 171.197L178.871 151.954L194.625 149.372L202.619 149.841Z" fill="white"/>
<path d="M148.306 288.299L202.857 311.062L167.822 358.701L150.657 371.843L139.605 373.955L115.151 375.833L107.392 375.363L101.984 373.955L99.6325 371.843L98.2217 366.915L99.6325 361.752L107.392 355.885L124.557 348.845L138.9 326.785L148.306 288.299Z" fill="white"/>
<path d="M327.952 303.552L375.214 323.734L366.984 331.947L348.879 361.282L346.292 364.802L343.236 367.383L335.006 373.015L330.303 374.658L305.614 375.597L299.5 373.954L297.149 372.546L294.092 370.434L293.622 368.557V365.506L295.268 360.108L301.382 354.242L319.252 346.263L328.657 325.611L327.952 303.552Z" fill="white"/>
</svg>
